<svg width="22" height="23" viewBox="0 0 22 23" fill="none" xmlns="http://www.w3.org/2000/svg">
<g clip-path="url(#clip0_401_548)">
<path d="M21.0832 18.2083C21.0832 18.7167 20.89 19.2042 20.5462 19.5636C20.2024 19.9231 19.7361 20.125 19.2498 20.125H2.74984C2.26361 20.125 1.79729 19.9231 1.45347 19.5636C1.10966 19.2042 0.916504 18.7167 0.916504 18.2083V7.66667C0.916504 7.15833 1.10966 6.67082 1.45347 6.31138C1.79729 5.95193 2.26361 5.75 2.74984 5.75H6.4165L8.24984 2.875H13.7498L15.5832 5.75H19.2498C19.7361 5.75 20.2024 5.95193 20.5462 6.31138C20.89 6.67082 21.0832 7.15833 21.0832 7.66667V18.2083Z" stroke="#1E1E1E" stroke-width="4" stroke-linecap="round" stroke-linejoin="round"/>
<path d="M10.9998 16.2917C13.0249 16.2917 14.6665 14.5754 14.6665 12.4583C14.6665 10.3412 13.0249 8.625 10.9998 8.625C8.97479 8.625 7.33317 10.3412 7.33317 12.4583C7.33317 14.5754 8.97479 16.2917 10.9998 16.2917Z" stroke="#1E1E1E" stroke-width="4" stroke-linecap="round" stroke-linejoin="round"/>
</g>
<defs>
<clipPath id="clip0_401_548">
<rect width="22" height="23" fill="white"/>
</clipPath>
</defs>
</svg>
