<svg width="21" height="20" viewBox="0 0 21 20" fill="none" xmlns="http://www.w3.org/2000/svg">
<path d="M20.125 15.8333C20.125 16.2754 19.9406 16.6993 19.6124 17.0118C19.2842 17.3244 18.8391 17.5 18.375 17.5H2.625C2.16087 17.5 1.71575 17.3244 1.38756 17.0118C1.05937 16.6993 0.875 16.2754 0.875 15.8333V6.66667C0.875 6.22464 1.05937 5.80072 1.38756 5.48816C1.71575 5.17559 2.16087 5 2.625 5H6.125L7.875 2.5H13.125L14.875 5H18.375C18.8391 5 19.2842 5.17559 19.6124 5.48816C19.9406 5.80072 20.125 6.22464 20.125 6.66667V15.8333Z" stroke="#1E1E1E" stroke-width="1.47763" stroke-linecap="round" stroke-linejoin="round"/>
<path d="M10.5 14.1667C12.433 14.1667 14 12.6743 14 10.8333C14 8.99238 12.433 7.5 10.5 7.5C8.567 7.5 7 8.99238 7 10.8333C7 12.6743 8.567 14.1667 10.5 14.1667Z" stroke="#1E1E1E" stroke-width="1.47763" stroke-linecap="round" stroke-linejoin="round"/>
</svg>
