<svg width="21" height="20" viewBox="0 0 21 20" fill="none" xmlns="http://www.w3.org/2000/svg">
<path d="M8.74993 10.833C9.1257 11.3114 9.60512 11.7073 10.1557 11.9938C10.7062 12.2802 11.315 12.4506 11.9407 12.4933C12.5665 12.5359 13.1946 12.45 13.7824 12.2411C14.3701 12.0323 14.9039 11.7055 15.3474 11.283L17.9724 8.78298C18.7694 7.99714 19.2103 6.94463 19.2004 5.85214C19.1904 4.75965 18.7303 3.7146 17.9191 2.94207C17.108 2.16953 16.0107 1.73133 14.8636 1.72184C13.7164 1.71234 12.6113 2.13232 11.7862 2.89131L10.2812 4.31631M12.2499 9.16631C11.8742 8.68787 11.3947 8.29199 10.8442 8.00553C10.2937 7.71907 9.68486 7.54872 9.05911 7.50603C8.43336 7.46335 7.80529 7.54934 7.2175 7.75816C6.62971 7.96698 6.09596 8.29375 5.65243 8.71631L3.02743 11.2163C2.23049 12.0022 1.78951 13.0547 1.79948 14.1472C1.80945 15.2396 2.26956 16.2847 3.08072 17.0572C3.89188 17.8298 4.98919 18.268 6.1363 18.2775C7.28341 18.2869 8.38855 17.867 9.21368 17.108L10.7099 15.683" stroke="#1E1E1E" stroke-width="1.44084" stroke-linecap="round" stroke-linejoin="round"/>
</svg>
