<svg width="21" height="23" viewBox="0 0 21 23" fill="none" xmlns="http://www.w3.org/2000/svg">
<g clip-path="url(#clip0_401_574)">
<path d="M8.74993 12.4585C9.1257 13.0087 9.60512 13.4639 10.1557 13.7934C10.7062 14.1228 11.315 14.3187 11.9407 14.3678C12.5665 14.4169 13.1946 14.318 13.7824 14.0778C14.3701 13.8377 14.9039 13.4619 15.3474 12.976L17.9724 10.101C18.7694 9.19724 19.2103 7.98686 19.2004 6.7305C19.1904 5.47414 18.7303 4.27233 17.9191 3.38392C17.108 2.4955 16.0107 1.99157 14.8636 1.98065C13.7164 1.96973 12.6113 2.45271 11.7862 3.32555L10.2812 4.9643M12.2499 10.5418C11.8742 9.99159 11.3947 9.53633 10.8442 9.2069C10.2937 8.87746 9.68486 8.68156 9.05911 8.63248C8.43336 8.58339 7.80529 8.68228 7.2175 8.92242C6.62971 9.16257 6.09596 9.53835 5.65243 10.0243L3.02743 12.8993C2.23049 13.803 1.78951 15.0134 1.79948 16.2698C1.80945 17.5261 2.26956 18.7279 3.08072 19.6163C3.89188 20.5048 4.98919 21.0087 6.1363 21.0196C7.28341 21.0305 8.38855 20.5476 9.21368 19.6747L10.7099 18.036" stroke="#1E1E1E" stroke-width="4" stroke-linecap="round" stroke-linejoin="round"/>
</g>
<defs>
<clipPath id="clip0_401_574">
<rect width="21" height="23" fill="white"/>
</clipPath>
</defs>
</svg>
