<svg width="22" height="23" viewBox="0 0 22 23" fill="none" xmlns="http://www.w3.org/2000/svg">
<path fill-rule="evenodd" clip-rule="evenodd" d="M10.9417 0.00106977H11.0583C13.421 0.00106977 15.2721 0.00106983 16.7169 0.204316C18.1945 0.411841 19.361 0.846147 20.2768 1.80247C21.1927 2.75987 21.6071 3.97935 21.8056 5.52509C22 7.03446 22 8.96958 22 11.4396V11.5337C22 13.5758 22 15.2467 21.8936 16.6074C21.7872 17.9766 21.5692 19.118 21.0801 20.0679C20.8659 20.4858 20.5981 20.8627 20.2768 21.1986C19.361 22.156 18.1945 22.5892 16.7159 22.7968C15.2721 23 13.421 23 11.0583 23H10.9417C8.57898 23 6.72791 23 5.28307 22.7968C3.80549 22.5892 2.63898 22.1549 1.72316 21.1986C0.911721 20.3503 0.492186 19.2945 0.27014 17.983C0.0501396 16.6962 0.0102325 15.0948 0.00204649 13.1073C0.000682144 12.6009 0 12.0653 0 11.5005V11.4385C0 8.96851 5.96046e-08 7.03339 0.194419 5.52295C0.39293 3.97828 0.808372 2.7588 1.72316 1.8014C2.63898 0.844007 3.80549 0.410772 5.28409 0.203246C6.72791 5.96046e-08 8.57898 0 10.9417 0M5.48772 1.79285C4.18 1.97684 3.39107 2.32771 2.80884 2.93637C2.22558 3.54611 1.89098 4.3698 1.71498 5.73797C1.53693 7.1286 1.53488 8.95568 1.53488 11.4995V12.4023L2.55916 11.4652C3.00845 11.0541 3.59042 10.8368 4.1872 10.8575C4.78397 10.8782 5.35093 11.1352 5.77321 11.5765L10.163 16.1656C10.5036 16.5216 10.9535 16.7406 11.4334 16.7841C11.9133 16.8275 12.3925 16.6926 12.7866 16.4031L13.0915 16.1784C13.6601 15.7607 14.3475 15.5571 15.0412 15.6008C15.7349 15.6445 16.3938 15.933 16.9103 16.4191L19.8061 19.1437C20.0988 18.504 20.2717 17.6632 20.3638 16.4769C20.4641 15.1879 20.4651 13.5811 20.4651 11.4995C20.4651 8.95568 20.4631 7.1286 20.285 5.73797C20.109 4.3698 19.7734 3.54504 19.1912 2.93531C18.6079 2.32664 17.82 1.97684 16.5113 1.79285C15.181 1.60672 13.4333 1.60458 11 1.60458C8.5667 1.60458 6.81795 1.60672 5.48772 1.79285Z" fill="black"/>
</svg>
