<svg width="33" height="30" viewBox="0 0 33 30" fill="none" xmlns="http://www.w3.org/2000/svg">
<path d="M16.5 26.25L14.5063 24.625C12.1917 22.7292 10.2781 21.0938 8.76562 19.7188C7.25313 18.3438 6.05 17.1146 5.15625 16.0313C4.2625 14.9271 3.63229 13.9167 3.26562 13C2.92188 12.0833 2.75 11.1458 2.75 10.1875C2.75 8.22917 3.47188 6.59375 4.91563 5.28125C6.35938 3.96875 8.15833 3.3125 10.3125 3.3125C11.5042 3.3125 12.6385 3.54167 13.7156 4C14.7927 4.45833 15.7208 5.10417 16.5 5.9375C17.2792 5.10417 18.2073 4.45833 19.2844 4C20.3615 3.54167 21.4958 3.3125 22.6875 3.3125C24.8417 3.3125 26.6406 3.96875 28.0844 5.28125C29.5281 6.59375 30.25 8.22917 30.25 10.1875C30.25 11.1458 30.0667 12.0833 29.7 13C29.3563 13.9167 28.7375 14.9271 27.8438 16.0313C26.95 17.1146 25.7469 18.3438 24.2344 19.7188C22.7219 21.0938 20.8083 22.7292 18.4938 24.625L16.5 26.25ZM16.5 22.875C18.7 21.0833 20.5104 19.5521 21.9313 18.2813C23.3521 16.9896 24.475 15.875 25.3 14.9375C26.125 13.9792 26.6979 13.1354 27.0188 12.4063C27.3396 11.6563 27.5 10.9167 27.5 10.1875C27.5 8.9375 27.0417 7.89583 26.125 7.0625C25.2083 6.22917 24.0625 5.8125 22.6875 5.8125C21.6104 5.8125 20.6135 6.09375 19.6969 6.65625C18.7802 7.19792 18.15 7.89583 17.8063 8.75H15.1938C14.85 7.89583 14.2198 7.19792 13.3031 6.65625C12.3865 6.09375 11.3896 5.8125 10.3125 5.8125C8.9375 5.8125 7.79167 6.22917 6.875 7.0625C5.95833 7.89583 5.5 8.9375 5.5 10.1875C5.5 10.9167 5.66042 11.6563 5.98125 12.4063C6.30208 13.1354 6.875 13.9792 7.7 14.9375C8.525 15.875 9.64792 16.9896 11.0688 18.2813C12.4896 19.5521 14.3 21.0833 16.5 22.875Z" fill="#1D1B20"/>
</svg>
