<svg width="80" height="80" viewBox="0 0 80 80" fill="none" xmlns="http://www.w3.org/2000/svg">
<g clip-path="url(#clip0_683_1479)">
<path d="M36.2267 51.722C28.6795 53.7909 28.6795 48.2737 25.6606 47.584M46.7927 55.8599V50.522C46.8493 49.8643 46.7521 49.2031 46.5075 48.5824C46.2628 47.9617 45.8764 47.3957 45.3739 46.922C50.1135 46.4392 55.0946 44.7978 55.0946 37.2668C55.0942 35.341 54.2836 33.4891 52.8305 32.0944C53.5185 30.4096 53.4699 28.5473 52.6946 26.8944C52.6946 26.8944 50.9135 26.4116 46.7927 28.9358C43.3331 28.079 39.6863 28.079 36.2267 28.9358C32.1059 26.4116 30.3248 26.8944 30.3248 26.8944C29.5495 28.5473 29.5009 30.4096 30.1889 32.0944C28.725 33.4995 27.9135 35.3681 27.9248 37.3082C27.9248 44.784 32.9059 46.4254 37.6455 46.9633C37.1489 47.4323 36.7659 47.9915 36.5215 48.6046C36.277 49.2177 36.1766 49.871 36.2267 50.522V55.8599" stroke="#1E1E1E" stroke-width="4" stroke-linecap="round" stroke-linejoin="round"/>
</g>
<path d="M39.9998 73.3327C58.4093 73.3327 73.3332 58.4088 73.3332 39.9994C73.3332 21.5899 58.4093 6.66602 39.9998 6.66602C21.5903 6.66602 6.6665 21.5899 6.6665 39.9994C6.6665 58.4088 21.5903 73.3327 39.9998 73.3327Z" stroke="#1E1E1E" stroke-width="4" stroke-linecap="round" stroke-linejoin="round"/>
<defs>
<clipPath id="clip0_683_1479">
<rect width="36.2264" height="33.1035" fill="white" transform="translate(22.6416 25.5156)"/>
</clipPath>
</defs>
</svg>
