<svg width="59" height="66" viewBox="0 0 59 66" fill="none" xmlns="http://www.w3.org/2000/svg">
<g clip-path="url(#clip0_683_1490)">
<path d="M26.7173 42.6715C21.1512 44.3783 21.1512 39.8266 18.9248 39.2577M34.5097 46.0852V41.6815C34.5515 41.1388 34.4798 40.5934 34.2993 40.0813C34.1189 39.5692 33.8339 39.1022 33.4633 38.7115C36.9588 38.3132 40.6324 36.959 40.6324 30.7459C40.6321 29.1572 40.0342 27.6294 38.9625 26.4787C39.47 25.0887 39.4341 23.5523 38.8624 22.1887C38.8624 22.1887 37.5488 21.7904 34.5097 23.8728C31.9582 23.166 29.2687 23.166 26.7173 23.8728C23.6782 21.7904 22.3646 22.1887 22.3646 22.1887C21.7928 23.5523 21.757 25.0887 22.2644 26.4787C21.1848 27.6379 20.5863 29.1795 20.5946 30.7801C20.5946 36.9477 24.2682 38.3018 27.7637 38.7456C27.3974 39.1325 27.115 39.5938 26.9347 40.0996C26.7544 40.6055 26.6803 41.1444 26.7173 41.6815V46.0852" stroke="#1E1E1E" stroke-width="4" stroke-linecap="round" stroke-linejoin="round"/>
</g>
<path d="M29.4998 60.5C43.0768 60.5 54.0832 48.1878 54.0832 33C54.0832 17.8122 43.0768 5.5 29.4998 5.5C15.9228 5.5 4.9165 17.8122 4.9165 33C4.9165 48.1878 15.9228 60.5 29.4998 60.5Z" stroke="#1E1E1E" stroke-width="4" stroke-linecap="round" stroke-linejoin="round"/>
<defs>
<clipPath id="clip0_683_1490">
<rect width="26.717" height="27.3103" fill="white" transform="translate(16.6982 21.0508)"/>
</clipPath>
</defs>
</svg>
