<svg width="80" height="80" viewBox="0 0 80 80" fill="none" xmlns="http://www.w3.org/2000/svg">
<g clip-path="url(#clip0_678_1133)">
<path d="M36.2267 51.7229C28.6795 53.7919 28.6795 48.2747 25.6606 47.585M46.7927 55.8609V50.5229C46.8493 49.8652 46.7521 49.2041 46.5075 48.5833C46.2628 47.9626 45.8764 47.3966 45.3739 46.9229C50.1135 46.4402 55.0946 44.7988 55.0946 37.2678C55.0942 35.342 54.2836 33.4901 52.8305 32.0954C53.5185 30.4105 53.4699 28.5483 52.6946 26.8954C52.6946 26.8954 50.9135 26.4126 46.7927 28.9367C43.3331 28.0799 39.6863 28.0799 36.2267 28.9367C32.1059 26.4126 30.3248 26.8954 30.3248 26.8954C29.5495 28.5483 29.5009 30.4105 30.1889 32.0954C28.725 33.5005 27.9135 35.3691 27.9248 37.3091C27.9248 44.785 32.9059 46.4264 37.6455 46.9643C37.1489 47.4332 36.7659 47.9925 36.5215 48.6056C36.277 49.2187 36.1766 49.872 36.2267 50.5229V55.8609" stroke="#1E1E1E" stroke-width="4" stroke-linecap="round" stroke-linejoin="round"/>
</g>
<path d="M39.9998 73.3337C58.4093 73.3337 73.3332 58.4098 73.3332 40.0003C73.3332 21.5908 58.4093 6.66699 39.9998 6.66699C21.5903 6.66699 6.6665 21.5908 6.6665 40.0003C6.6665 58.4098 21.5903 73.3337 39.9998 73.3337Z" stroke="#1E1E1E" stroke-width="4" stroke-linecap="round" stroke-linejoin="round"/>
<defs>
<clipPath id="clip0_678_1133">
<rect width="36.2264" height="33.1035" fill="white" transform="translate(22.6416 25.5156)"/>
</clipPath>
</defs>
</svg>
