<svg width="31" height="25" viewBox="0 0 31 25" fill="none" xmlns="http://www.w3.org/2000/svg">
<g clip-path="url(#clip0_681_1171)">
<path d="M1.2915 4.16672V10.4167M1.2915 10.4167H9.0415M1.2915 10.4167L7.28484 5.87505C9.06852 4.43903 11.3826 3.50939 13.8784 3.22621C16.3742 2.94303 18.9165 3.32165 21.1222 4.30501C23.328 5.28838 25.0778 6.82322 26.1078 8.67828C27.1379 10.5333 27.3925 12.6081 26.8332 14.59C26.274 16.5719 24.9312 18.3535 23.0072 19.6665C21.0832 20.9794 18.6822 21.7525 16.166 21.8693C13.6498 21.9861 11.1546 21.4402 9.05656 20.314C6.95848 19.1877 5.3711 17.5421 4.53359 15.6251" stroke="#757575" stroke-width="4" stroke-linecap="round" stroke-linejoin="round"/>
</g>
<defs>
<clipPath id="clip0_681_1171">
<rect width="31" height="25" fill="white"/>
</clipPath>
</defs>
</svg>
