<svg width="70" height="70" viewBox="0 0 160 160" fill="none" xmlns="http://www.w3.org/2000/svg">
<path d="M126.667 20H33.3333C25.9695 20 20 25.9695 20 33.3333V126.667C20 134.03 25.9695 140 33.3333 140H126.667C134.03 140 140 134.03 140 126.667V33.3333C140 25.9695 134.03 20 126.667 20Z" stroke="#212121" stroke-width="3" stroke-linecap="round" stroke-linejoin="round"/>
<path d="M56.6665 66.667C62.1893 66.667 66.6665 62.1898 66.6665 56.667C66.6665 51.1441 62.1893 46.667 56.6665 46.667C51.1437 46.667 46.6665 51.1441 46.6665 56.667C46.6665 62.1898 51.1437 66.667 56.6665 66.667Z" stroke="#212121" stroke-width="3" stroke-linecap="round" stroke-linejoin="round"/>
<path d="M140 100L106.667 66.667L33.3335 140" stroke="#212121" stroke-width="3" stroke-linecap="round" stroke-linejoin="round"/>
</svg>
